<svg id="Layer_1" data-name="Layer 1" xmlns="http://www.w3.org/2000/svg" viewBox="0 0 134.3 61.1"><defs><style>.cls-1{fill:#fff;}</style></defs><title>Space48 Logo_</title><path class="cls-1" d="M14,44.1a3.4,3.4,0,0,0-1.6-1.9,6.8,6.8,0,0,0-3.1-.6,9.8,9.8,0,0,0-3.4.5,1.8,1.8,0,0,0-1.2,1.6,1.8,1.8,0,0,0,.7,1.5,6.4,6.4,0,0,0,2.7.7l3.8.7A10.1,10.1,0,0,1,17,48.5a5,5,0,0,1,1.6,3.8,4.7,4.7,0,0,1-2.4,4.2Q14,58,9.6,58a15.6,15.6,0,0,1-5.2-.7A6.7,6.7,0,0,1,1.3,55,7.2,7.2,0,0,1,0,51.2H4.2a3.4,3.4,0,0,0,1.6,2.7,6.4,6.4,0,0,0,3.8.9,7.9,7.9,0,0,0,3.5-.6,2.1,2.1,0,0,0,1.2-1.9,1.9,1.9,0,0,0-.8-1.5A8.1,8.1,0,0,0,11,50l-3.1-.4a12.5,12.5,0,0,1-5.6-1.9A4.6,4.6,0,0,1,.5,43.8a4.4,4.4,0,0,1,1.1-2.9,7.4,7.4,0,0,1,3-1.9,17.5,17.5,0,0,1,4.8-.6,11.8,11.8,0,0,1,5.9,1.2,6.6,6.6,0,0,1,2.8,4Z"/><path class="cls-1" d="M24.7,50.6a4.4,4.4,0,0,0,1.1,3A4.4,4.4,0,0,0,29,54.8a4.5,4.5,0,0,0,3.3-1.2,5,5,0,0,0,1.1-3.4A4.4,4.4,0,0,0,32.3,47a4.2,4.2,0,0,0-3.2-1.2,5.7,5.7,0,0,0-1.8.3,4,4,0,0,0-1.5,1,3.5,3.5,0,0,0-.8,1.3,3.3,3.3,0,0,0-.3,1.5ZM20.6,61.1v-18h4v2.2a6.9,6.9,0,0,1,2.5-2,8.1,8.1,0,0,1,3.5-.7,7.5,7.5,0,0,1,3.7.9,6.9,6.9,0,0,1,2.5,2.6,8.7,8.7,0,0,1,.9,4,8.8,8.8,0,0,1-.9,4.1,6.8,6.8,0,0,1-2.6,2.7,7.7,7.7,0,0,1-4,1,6.6,6.6,0,0,1-5.5-2.3v5.5Z"/><path class="cls-1" d="M52,51H48.5a8.2,8.2,0,0,0-3.2.5,1.8,1.8,0,0,0-1.1,1.6,1.4,1.4,0,0,0,.8,1.3,3.4,3.4,0,0,0,2.2.5A6.7,6.7,0,0,0,51,53.9a2.6,2.6,0,0,0,1-2.1Zm.1,6.9V55.5a8,8,0,0,1-2.7,1.8,8.8,8.8,0,0,1-3.3.6,7,7,0,0,1-4.4-1.2,3.7,3.7,0,0,1-1.5-3.2,3.8,3.8,0,0,1,2-3.6c1.3-.8,3.4-1.2,6.3-1.3H52V48a2.3,2.3,0,0,0-.9-1.9,4.4,4.4,0,0,0-2.5-.6c-2.1,0-3.3.6-3.7,1.8l-3.8-.4a4.4,4.4,0,0,1,2.4-3.2,10.6,10.6,0,0,1,5.2-1.1c4.9,0,7.3,1.9,7.3,5.7v9.6Z"/><path class="cls-1" d="M75.5,52.3a6,6,0,0,1-2.4,4.2,9.1,9.1,0,0,1-5.4,1.4A9,9,0,0,1,61.5,56a7.2,7.2,0,0,1-2.2-5.6,8,8,0,0,1,1-4.1,6.9,6.9,0,0,1,2.9-2.7,9.3,9.3,0,0,1,4.5-1A8.8,8.8,0,0,1,72.8,44a5.8,5.8,0,0,1,2.5,3.8l-4.2.5a2.9,2.9,0,0,0-1.2-1.9,3.6,3.6,0,0,0-2.2-.6,3.8,3.8,0,0,0-3,1.2,4.4,4.4,0,0,0-1.1,3.3,4.8,4.8,0,0,0,1,3.3,4.1,4.1,0,0,0,3.1,1.2,4.1,4.1,0,0,0,2.5-.7,2.9,2.9,0,0,0,1.2-1.8Z"/><path class="cls-1" d="M90.6,48.8a2.7,2.7,0,0,0-1.2-2.4,5.1,5.1,0,0,0-3.2-.9,4.3,4.3,0,0,0-2.9,1A3,3,0,0,0,82,48.8Zm-8.7,2.5a3.3,3.3,0,0,0,.6,1.9A3.8,3.8,0,0,0,84,54.5a6,6,0,0,0,2.4.5c2.1,0,3.5-.7,4-2h3.8a5.2,5.2,0,0,1-2.5,3.7,10.4,10.4,0,0,1-5.5,1.2A8.9,8.9,0,0,1,80.1,56,7.2,7.2,0,0,1,78,50.5a8,8,0,0,1,1-4.1,7.1,7.1,0,0,1,2.9-2.8,8.7,8.7,0,0,1,4.4-1,8.5,8.5,0,0,1,6,2A7,7,0,0,1,94.4,50v1.3Z"/><path class="cls-1" d="M108.1,42.7l-6.9,7.6h6.9Zm0,15.2V53.4h-11V50.3l10.8-11.9H112V50.3h3.1v3.1H112v4.5Z"/><path class="cls-1" d="M129.8,44a1.9,1.9,0,0,0-1-1.8,6.4,6.4,0,0,0-5.8,0,1.9,1.9,0,0,0-1,1.8q0,2.4,3.9,2.4t3.9-2.4m.6,8.2q0-2.7-4.5-2.7t-4.5,2.7a2.1,2.1,0,0,0,1.2,1.9,5.8,5.8,0,0,0,3.3.7,6.2,6.2,0,0,0,3.3-.7,2.1,2.1,0,0,0,1.2-1.9m.1-4.3a5.6,5.6,0,0,1,2.8,1.7,4.2,4.2,0,0,1,1,2.8,4.7,4.7,0,0,1-2.2,4.2,11.8,11.8,0,0,1-6.3,1.4,11.9,11.9,0,0,1-6.2-1.4,4.6,4.6,0,0,1-2.1-4.1,4.2,4.2,0,0,1,1-2.8,5.7,5.7,0,0,1,2.8-1.8,5.1,5.1,0,0,1-2.3-1.7,3.8,3.8,0,0,1-.8-2.5,4.5,4.5,0,0,1,.9-2.8,6.2,6.2,0,0,1,2.7-1.9,12.5,12.5,0,0,1,4.2-.6,9.3,9.3,0,0,1,5.6,1.4,4.4,4.4,0,0,1,2,3.8,3.8,3.8,0,0,1-.8,2.6,5.1,5.1,0,0,1-2.3,1.7"/><path class="cls-1" d="M79.9,13.9a7,7,0,1,0,6.9,6.9,6.9,6.9,0,0,0-6.9-6.9m0,16.6a9.7,9.7,0,1,1,9.7-9.7,9.6,9.6,0,0,1-9.7,9.7"/><path class="cls-1" d="M84.6,4.7A4.7,4.7,0,1,1,79.9,0a4.7,4.7,0,0,1,4.7,4.7"/><polygon class="cls-1" points="63.6 9.4 63.6 24.4 49.9 24.4 63.6 9.4"/></svg>